name Walk3.mot
datacolumns 19
datarows 22
range 2.28800000 2.30900000
endheader

                time	   L_ground_force_vx	   L_ground_force_vy	   L_ground_force_vz	   L_ground_force_px	   L_ground_force_py	   L_ground_force_pz	   R_ground_force_vx	   R_ground_force_vy	   R_ground_force_vz	   R_ground_force_px	   R_ground_force_py	   R_ground_force_pz	   L_ground_torque_x	   L_ground_torque_y	   L_ground_torque_z	   R_ground_torque_x	   R_ground_torque_y	   R_ground_torque_z	
          2.28800000	        -12.50015846	        477.11794938	         44.53878643	          0.44327646	          0.00000000	          0.18539266	         -0.14859268	        -22.03031911	         -0.11660375	         -0.14397062	          0.00000000	          0.21518515	          0.00000000	         -1.10891396	          0.00000000	          0.00000000	          0.00126955	          0.00000000	
          2.28900000	        -11.78430402	        476.75441815	         45.03365629	          0.44338351	          0.00000000	          0.18513832	         -0.14859268	        -22.03031948	         -0.11660376	         -0.14397062	          0.00000000	          0.21518515	          0.00000000	         -1.13451702	          0.00000000	          0.00000000	          0.00126955	          0.00000000	
          2.29000000	        -11.08528382	        476.52621341	         45.50424973	          0.44356249	          0.00000000	          0.18491776	         -0.14859269	        -22.03032015	         -0.11660379	         -0.14397062	          0.00000000	          0.21518515	          0.00000000	         -1.15796496	          0.00000000	          0.00000000	          0.00126955	          0.00000000	
          2.29100000	        -10.39340342	        476.44889369	         45.95099798	          0.44389271	          0.00000000	          0.18476048	         -0.14859269	        -22.03032110	         -0.11660384	         -0.14397062	          0.00000000	          0.21518514	          0.00000000	         -1.17375700	          0.00000000	          0.00000000	          0.00126954	          0.00000000	
          2.29200000	         -9.71064497	        476.51396555	         46.36795507	          0.44435630	          0.00000000	          0.18465572	         -0.14859270	        -22.03032213	         -0.11660388	         -0.14397062	          0.00000000	          0.21518514	          0.00000000	         -1.18494159	          0.00000000	          0.00000000	          0.00126954	          0.00000000	
          2.29300000	         -9.05413965	        476.71721095	         46.75045699	          0.44485308	          0.00000000	          0.18458028	         -0.14859270	        -22.03032267	         -0.11660390	         -0.14397062	          0.00000000	          0.21518514	          0.00000000	         -1.19806399	          0.00000000	          0.00000000	          0.00126954	          0.00000000	
          2.29400000	         -8.44024174	        477.01969492	         47.09512456	          0.44527858	          0.00000000	          0.18450320	         -0.14859269	        -22.03032166	         -0.11660386	         -0.14397062	          0.00000000	          0.21518514	          0.00000000	         -1.21834297	          0.00000000	          0.00000000	          0.00126954	          0.00000000	
          2.29500000	         -7.87501024	        477.35195541	         47.39714563	          0.44557961	          0.00000000	          0.18439907	         -0.14859265	        -22.03031756	         -0.11660367	         -0.14397062	          0.00000000	          0.21518515	          0.00000000	         -1.24625373	          0.00000000	          0.00000000	          0.00126955	          0.00000000	
          2.29600000	         -7.35499473	        477.68355907	         47.65572751	          0.44577303	          0.00000000	          0.18427458	         -0.14859259	        -22.03030865	         -0.11660327	         -0.14397062	          0.00000000	          0.21518517	          0.00000000	         -1.27611213	          0.00000000	          0.00000000	          0.00126958	          0.00000000	
          2.29700000	         -6.86758955	        478.04474769	         47.87620413	          0.44594628	          0.00000000	          0.18416225	         -0.14859249	        -22.03029393	         -0.11660260	         -0.14397062	          0.00000000	          0.21518521	          0.00000000	         -1.29796069	          0.00000000	          0.00000000	          0.00126963	          0.00000000	
          2.29800000	         -6.39701820	        478.47661730	         48.06418160	          0.44620250	          0.00000000	          0.18408513	         -0.14859238	        -22.03027475	         -0.11660174	         -0.14397063	          0.00000000	          0.21518525	          0.00000000	         -1.30365614	          0.00000000	          0.00000000	          0.00126969	          0.00000000	
          2.29900000	         -5.93261588	        478.98035117	         48.22180942	          0.44658443	          0.00000000	          0.18403642	         -0.14859229	        -22.03025729	         -0.11660096	         -0.14397063	          0.00000000	          0.21518528	          0.00000000	         -1.29424738	          0.00000000	          0.00000000	          0.00126975	          0.00000000	
          2.30000000	         -5.46820790	        479.52373962	         48.35145934	          0.44705548	          0.00000000	          0.18398858	         -0.14859234	        -22.03025542	         -0.11660089	         -0.14397062	          0.00000000	          0.21518528	          0.00000000	         -1.28108864	          0.00000000	          0.00000000	          0.00126976	          0.00000000	
          2.30100000	         -4.99908989	        480.08590074	         48.46199476	          0.44754439	          0.00000000	          0.18392019	         -0.14859268	        -22.03029254	         -0.11660259	         -0.14397061	          0.00000000	          0.21518518	          0.00000000	         -1.27887905	          0.00000000	          0.00000000	          0.00126964	          0.00000000	
          2.30200000	         -4.52436406	        480.68267841	         48.56386237	          0.44800202	          0.00000000	          0.18383509	         -0.14859350	        -22.03039985	         -0.11660746	         -0.14397060	          0.00000000	          0.21518494	          0.00000000	         -1.29699705	          0.00000000	          0.00000000	          0.00126930	          0.00000000	
          2.30300000	         -4.04794222	        481.36806124	         48.65781742	          0.44840692	          0.00000000	          0.18375188	         -0.14859495	        -22.03060703	         -0.11661683	         -0.14397057	          0.00000000	          0.21518448	          0.00000000	         -1.33418501	          0.00000000	          0.00000000	          0.00126863	          0.00000000	
          2.30400000	         -3.57417208	        482.21393266	         48.73791566	          0.44874132	          0.00000000	          0.18368267	         -0.14859697	        -22.03092074	         -0.11663097	         -0.14397054	          0.00000000	          0.21518380	          0.00000000	         -1.37935516	          0.00000000	          0.00000000	          0.00126762	          0.00000000	
          2.30500000	         -3.10692354	        483.26825927	         48.79923376	          0.44900439	          0.00000000	          0.18362691	         -0.14859905	        -22.03128748	         -0.11664742	         -0.14397051	          0.00000000	          0.21518305	          0.00000000	         -1.41896326	          0.00000000	          0.00000000	          0.00126642	          0.00000000	
          2.30600000	         -2.65236292	        484.54285835	         48.83468918	          0.44923206	          0.00000000	          0.18357701	         -0.14859994	        -22.03154294	         -0.11665874	         -0.14397053	          0.00000000	          0.21518261	          0.00000000	         -1.44543578	          0.00000000	          0.00000000	          0.00126557	          0.00000000	
          2.30700000	         -2.21306170	        486.03207788	         48.83764793	          0.44947604	          0.00000000	          0.18353183	         -0.14859734	        -22.03136187	         -0.11665020	         -0.14397062	          0.00000000	          0.21518319	          0.00000000	         -1.45998632	          0.00000000	          0.00000000	          0.00126611	          0.00000000	
          2.30800000	         -1.77744231	        487.69765532	         48.80813985	          0.44977777	          0.00000000	          0.18350390	         -0.14858799	        -22.03024166	         -0.11659916	         -0.14397086	          0.00000000	          0.21518588	          0.00000000	         -1.46814884	          0.00000000	          0.00000000	          0.00126966	          0.00000000	
          2.30900000	         -1.32286297	        489.44823167	         48.74456443	          0.45014821	          0.00000000	          0.18350280	         -0.14856842	        -22.02757863	         -0.11647851	         -0.14397126	          0.00000000	          0.21519192	          0.00000000	         -1.47331696	          0.00000000	          0.00000000	          0.00127820	          0.00000000	
